<?xml version="1.0" standalone="no"?>
<!DOCTYPE svg PUBLIC "-//W3C//DTD SVG 20010904//EN"
 "http://www.w3.org/TR/2001/REC-SVG-20010904/DTD/svg10.dtd">
<svg version="1.0" xmlns="http://www.w3.org/2000/svg"
 width="512.000000pt" height="512.000000pt" viewBox="0 0 512.000000 512.000000"
 preserveAspectRatio="xMidYMid meet">

<g transform="translate(0.000000,512.000000) scale(0.100000,-0.100000)"
fill="#000000" stroke="none">
<path d="M2115 4719 c-20 -10 -1962 -3255 -2007 -3354 -19 -42 -23 -67 -23
-150 l0 -100 163 -340 c94 -197 174 -349 188 -363 l25 -22 1932 0 c1063 1
1962 5 1999 9 85 11 171 51 227 104 24 23 100 128 169 232 68 105 154 234 189
288 53 80 64 105 61 130 -4 33 -1890 3377 -1936 3432 -39 47 -102 91 -167 116
-58 22 -71 23 -430 26 -239 2 -377 -1 -390 -8z m751 -160 c96 -25 62 32 1048
-1713 504 -890 916 -1620 916 -1622 0 -2 -702 -4 -1560 -4 -858 0 -1560 2
-1560 5 0 3 151 264 335 580 214 367 335 585 335 602 0 52 -60 88 -114 67 -23
-9 -776 -1305 -776 -1336 0 -14 9 -36 19 -49 l19 -24 1641 -5 1641 -5 -126
-195 c-138 -213 -169 -251 -229 -283 l-40 -22 -1898 -3 c-1043 -1 -1897 0
-1897 2 0 2 349 608 775 1346 427 738 779 1349 783 1357 9 15 147 -225 501
-872 106 -192 199 -356 208 -362 43 -33 123 7 123 61 0 29 -714 1333 -763
1395 -20 24 -58 33 -88 21 -23 -10 -174 -265 -846 -1431 -450 -780 -821 -1418
-824 -1419 -3 0 -61 115 -129 256 -113 235 -123 260 -123 312 0 40 7 71 24
104 13 25 443 748 954 1607 702 1177 933 1557 941 1548 17 -18 1584 -2638
1584 -2648 0 -5 -333 -9 -772 -9 l-772 0 -23 -22 c-30 -28 -30 -74 -1 -105
l21 -23 864 0 c863 0 863 0 884 21 16 16 20 30 17 57 -2 27 -219 396 -824
1407 -452 754 -826 1380 -833 1393 l-12 22 266 0 c165 0 283 -4 311 -11z"/>
</g>
</svg>
